G04 EAGLE Gerber RS-274X export*
G75*
%MOMM*%
%FSLAX34Y34*%
%LPD*%
%INTop Copper*%
%IPPOS*%
%AMOC8*
5,1,8,0,0,1.08239X$1,22.5*%
G01*
%ADD10C,2.100000*%
%ADD11C,1.320800*%
%ADD12P,1.429621X8X22.500000*%
%ADD13P,1.429621X8X112.500000*%
%ADD14C,1.524000*%


D10*
X596900Y787400D03*
X746900Y787400D03*
X796900Y787400D03*
X846900Y787400D03*
X846900Y862400D03*
X796900Y862400D03*
X746900Y862400D03*
X596900Y862400D03*
D11*
X533400Y781304D02*
X533400Y768096D01*
X533400Y869696D02*
X533400Y882904D01*
D12*
X508000Y774700D03*
X495300Y793750D03*
X482600Y774700D03*
D13*
X495300Y812800D03*
X495300Y889000D03*
D10*
X596900Y546100D03*
X746900Y546100D03*
X796900Y546100D03*
X846900Y546100D03*
X846900Y621100D03*
X796900Y621100D03*
X746900Y621100D03*
X596900Y621100D03*
D11*
X533400Y540004D02*
X533400Y526796D01*
X533400Y628396D02*
X533400Y641604D01*
D12*
X508000Y533400D03*
X495300Y552450D03*
X482600Y533400D03*
D13*
X495300Y571500D03*
X495300Y647700D03*
D10*
X596900Y304800D03*
X746900Y304800D03*
X796900Y304800D03*
X846900Y304800D03*
X846900Y379800D03*
X796900Y379800D03*
X746900Y379800D03*
X596900Y379800D03*
D11*
X533400Y298704D02*
X533400Y285496D01*
X533400Y387096D02*
X533400Y400304D01*
D12*
X508000Y292100D03*
X495300Y311150D03*
X482600Y292100D03*
D13*
X495300Y330200D03*
X495300Y406400D03*
D10*
X596900Y63500D03*
X746900Y63500D03*
X796900Y63500D03*
X846900Y63500D03*
X846900Y138500D03*
X796900Y138500D03*
X746900Y138500D03*
X596900Y138500D03*
D11*
X533400Y57404D02*
X533400Y44196D01*
X533400Y145796D02*
X533400Y159004D01*
D12*
X508000Y50800D03*
X495300Y69850D03*
X482600Y50800D03*
D13*
X495300Y88900D03*
X495300Y165100D03*
D14*
X635000Y932180D02*
X635000Y947420D01*
X609600Y947420D02*
X609600Y932180D01*
X584200Y932180D02*
X584200Y947420D01*
X533400Y947420D02*
X533400Y932180D01*
X508000Y932180D02*
X508000Y947420D01*
X482600Y947420D02*
X482600Y932180D01*
X457200Y932180D02*
X457200Y947420D01*
M02*
