M48
;GenerationSoftware,Autodesk,EAGLE,9.6.2*%
;CreationDate,2022-02-22T19:55:50Z*%
FMAT,2
ICI,OFF
METRIC,TZ,000.000
T4C0.813
T3C1.016
T2C1.270
T1C1.400
%
G90
M71
T1
X74690Y86240
X74690Y54610
X79690Y54610
X84690Y54610
X84690Y62110
X79690Y62110
X74690Y62110
X59690Y62110
X84690Y30480
X74690Y37980
X79690Y30480
X74690Y30480
X59690Y78740
X74690Y78740
X79690Y78740
X84690Y78740
X84690Y86240
X79690Y86240
X59690Y30480
X59690Y86240
X84690Y6350
X79690Y6350
X74690Y6350
X59690Y6350
X59690Y37980
X79690Y37980
X84690Y37980
X59690Y54610
X84690Y13850
X79690Y13850
X74690Y13850
X59690Y13850
T2
X90170Y62230
X90170Y48260
X90170Y43180
X90170Y38100
X90170Y19050
X90170Y13970
X90170Y24130
X90170Y96520
X90170Y91440
X90170Y86360
X90170Y72390
X90170Y67310
T3
X45720Y93980
X63500Y93980
X60960Y93980
X58420Y93980
X53340Y93980
X50800Y93980
X48260Y93980
T4
X53340Y39370
X50800Y29210
X49530Y31115
X48260Y29210
X49530Y33020
X49530Y40640
X49530Y79375
X50800Y77470
X53340Y87630
X53340Y77470
X49530Y57150
X49530Y64770
X49530Y55245
X50800Y53340
X53340Y5080
X53340Y15240
X50800Y5080
X49530Y6985
X53340Y63500
X49530Y8890
X49530Y16510
X53340Y53340
X49530Y88900
X49530Y81280
X48260Y53340
X48260Y77470
X53340Y29210
X48260Y5080
M30