G04 EAGLE Gerber RS-274X export*
G75*
%MOMM*%
%FSLAX34Y34*%
%LPD*%
%IN*%
%IPPOS*%
%AMOC8*
5,1,8,0,0,1.08239X$1,22.5*%
G01*
%ADD10C,0.000000*%


D10*
X431800Y0D02*
X936500Y0D01*
X936500Y1003200D01*
X431800Y1003200D01*
X431800Y0D01*
X895350Y965200D02*
X895352Y965359D01*
X895358Y965518D01*
X895368Y965676D01*
X895382Y965835D01*
X895400Y965993D01*
X895421Y966150D01*
X895447Y966307D01*
X895477Y966463D01*
X895510Y966619D01*
X895548Y966773D01*
X895589Y966927D01*
X895634Y967079D01*
X895683Y967230D01*
X895736Y967380D01*
X895792Y967529D01*
X895853Y967676D01*
X895916Y967821D01*
X895984Y967965D01*
X896055Y968108D01*
X896129Y968248D01*
X896207Y968386D01*
X896289Y968523D01*
X896374Y968657D01*
X896462Y968790D01*
X896553Y968920D01*
X896648Y969047D01*
X896746Y969172D01*
X896847Y969295D01*
X896951Y969415D01*
X897058Y969533D01*
X897168Y969648D01*
X897281Y969760D01*
X897396Y969869D01*
X897514Y969975D01*
X897635Y970079D01*
X897759Y970179D01*
X897884Y970276D01*
X898013Y970370D01*
X898143Y970460D01*
X898276Y970548D01*
X898411Y970632D01*
X898548Y970712D01*
X898687Y970790D01*
X898828Y970863D01*
X898970Y970933D01*
X899115Y971000D01*
X899261Y971063D01*
X899408Y971122D01*
X899557Y971178D01*
X899708Y971229D01*
X899859Y971277D01*
X900012Y971321D01*
X900166Y971362D01*
X900320Y971398D01*
X900476Y971431D01*
X900632Y971460D01*
X900789Y971484D01*
X900947Y971505D01*
X901105Y971522D01*
X901263Y971535D01*
X901422Y971544D01*
X901581Y971549D01*
X901740Y971550D01*
X901899Y971547D01*
X902057Y971540D01*
X902216Y971529D01*
X902374Y971514D01*
X902532Y971495D01*
X902689Y971472D01*
X902846Y971446D01*
X903002Y971415D01*
X903157Y971381D01*
X903311Y971342D01*
X903465Y971300D01*
X903617Y971254D01*
X903768Y971204D01*
X903917Y971150D01*
X904066Y971093D01*
X904212Y971032D01*
X904358Y970967D01*
X904501Y970899D01*
X904643Y970827D01*
X904783Y970751D01*
X904921Y970673D01*
X905057Y970590D01*
X905191Y970505D01*
X905322Y970416D01*
X905452Y970323D01*
X905579Y970228D01*
X905703Y970129D01*
X905826Y970027D01*
X905945Y969923D01*
X906062Y969815D01*
X906176Y969704D01*
X906287Y969591D01*
X906396Y969475D01*
X906501Y969356D01*
X906604Y969234D01*
X906703Y969110D01*
X906800Y968984D01*
X906893Y968855D01*
X906983Y968724D01*
X907069Y968590D01*
X907152Y968455D01*
X907232Y968317D01*
X907308Y968178D01*
X907381Y968037D01*
X907450Y967894D01*
X907516Y967749D01*
X907578Y967602D01*
X907636Y967455D01*
X907691Y967305D01*
X907742Y967155D01*
X907789Y967003D01*
X907832Y966850D01*
X907871Y966696D01*
X907907Y966541D01*
X907938Y966385D01*
X907966Y966229D01*
X907990Y966072D01*
X908010Y965914D01*
X908026Y965756D01*
X908038Y965597D01*
X908046Y965438D01*
X908050Y965279D01*
X908050Y965121D01*
X908046Y964962D01*
X908038Y964803D01*
X908026Y964644D01*
X908010Y964486D01*
X907990Y964328D01*
X907966Y964171D01*
X907938Y964015D01*
X907907Y963859D01*
X907871Y963704D01*
X907832Y963550D01*
X907789Y963397D01*
X907742Y963245D01*
X907691Y963095D01*
X907636Y962945D01*
X907578Y962798D01*
X907516Y962651D01*
X907450Y962506D01*
X907381Y962363D01*
X907308Y962222D01*
X907232Y962083D01*
X907152Y961945D01*
X907069Y961810D01*
X906983Y961676D01*
X906893Y961545D01*
X906800Y961416D01*
X906703Y961290D01*
X906604Y961166D01*
X906501Y961044D01*
X906396Y960925D01*
X906287Y960809D01*
X906176Y960696D01*
X906062Y960585D01*
X905945Y960477D01*
X905826Y960373D01*
X905703Y960271D01*
X905579Y960172D01*
X905452Y960077D01*
X905322Y959984D01*
X905191Y959895D01*
X905057Y959810D01*
X904921Y959727D01*
X904783Y959649D01*
X904643Y959573D01*
X904501Y959501D01*
X904358Y959433D01*
X904212Y959368D01*
X904066Y959307D01*
X903917Y959250D01*
X903768Y959196D01*
X903617Y959146D01*
X903465Y959100D01*
X903311Y959058D01*
X903157Y959019D01*
X903002Y958985D01*
X902846Y958954D01*
X902689Y958928D01*
X902532Y958905D01*
X902374Y958886D01*
X902216Y958871D01*
X902057Y958860D01*
X901899Y958853D01*
X901740Y958850D01*
X901581Y958851D01*
X901422Y958856D01*
X901263Y958865D01*
X901105Y958878D01*
X900947Y958895D01*
X900789Y958916D01*
X900632Y958940D01*
X900476Y958969D01*
X900320Y959002D01*
X900166Y959038D01*
X900012Y959079D01*
X899859Y959123D01*
X899708Y959171D01*
X899557Y959222D01*
X899408Y959278D01*
X899261Y959337D01*
X899115Y959400D01*
X898970Y959467D01*
X898828Y959537D01*
X898687Y959610D01*
X898548Y959688D01*
X898411Y959768D01*
X898276Y959852D01*
X898143Y959940D01*
X898013Y960030D01*
X897884Y960124D01*
X897759Y960221D01*
X897635Y960321D01*
X897514Y960425D01*
X897396Y960531D01*
X897281Y960640D01*
X897168Y960752D01*
X897058Y960867D01*
X896951Y960985D01*
X896847Y961105D01*
X896746Y961228D01*
X896648Y961353D01*
X896553Y961480D01*
X896462Y961610D01*
X896374Y961743D01*
X896289Y961877D01*
X896207Y962014D01*
X896129Y962152D01*
X896055Y962292D01*
X895984Y962435D01*
X895916Y962579D01*
X895853Y962724D01*
X895792Y962871D01*
X895736Y963020D01*
X895683Y963170D01*
X895634Y963321D01*
X895589Y963473D01*
X895548Y963627D01*
X895510Y963781D01*
X895477Y963937D01*
X895447Y964093D01*
X895421Y964250D01*
X895400Y964407D01*
X895382Y964565D01*
X895368Y964724D01*
X895358Y964882D01*
X895352Y965041D01*
X895350Y965200D01*
X895350Y914400D02*
X895352Y914559D01*
X895358Y914718D01*
X895368Y914876D01*
X895382Y915035D01*
X895400Y915193D01*
X895421Y915350D01*
X895447Y915507D01*
X895477Y915663D01*
X895510Y915819D01*
X895548Y915973D01*
X895589Y916127D01*
X895634Y916279D01*
X895683Y916430D01*
X895736Y916580D01*
X895792Y916729D01*
X895853Y916876D01*
X895916Y917021D01*
X895984Y917165D01*
X896055Y917308D01*
X896129Y917448D01*
X896207Y917586D01*
X896289Y917723D01*
X896374Y917857D01*
X896462Y917990D01*
X896553Y918120D01*
X896648Y918247D01*
X896746Y918372D01*
X896847Y918495D01*
X896951Y918615D01*
X897058Y918733D01*
X897168Y918848D01*
X897281Y918960D01*
X897396Y919069D01*
X897514Y919175D01*
X897635Y919279D01*
X897759Y919379D01*
X897884Y919476D01*
X898013Y919570D01*
X898143Y919660D01*
X898276Y919748D01*
X898411Y919832D01*
X898548Y919912D01*
X898687Y919990D01*
X898828Y920063D01*
X898970Y920133D01*
X899115Y920200D01*
X899261Y920263D01*
X899408Y920322D01*
X899557Y920378D01*
X899708Y920429D01*
X899859Y920477D01*
X900012Y920521D01*
X900166Y920562D01*
X900320Y920598D01*
X900476Y920631D01*
X900632Y920660D01*
X900789Y920684D01*
X900947Y920705D01*
X901105Y920722D01*
X901263Y920735D01*
X901422Y920744D01*
X901581Y920749D01*
X901740Y920750D01*
X901899Y920747D01*
X902057Y920740D01*
X902216Y920729D01*
X902374Y920714D01*
X902532Y920695D01*
X902689Y920672D01*
X902846Y920646D01*
X903002Y920615D01*
X903157Y920581D01*
X903311Y920542D01*
X903465Y920500D01*
X903617Y920454D01*
X903768Y920404D01*
X903917Y920350D01*
X904066Y920293D01*
X904212Y920232D01*
X904358Y920167D01*
X904501Y920099D01*
X904643Y920027D01*
X904783Y919951D01*
X904921Y919873D01*
X905057Y919790D01*
X905191Y919705D01*
X905322Y919616D01*
X905452Y919523D01*
X905579Y919428D01*
X905703Y919329D01*
X905826Y919227D01*
X905945Y919123D01*
X906062Y919015D01*
X906176Y918904D01*
X906287Y918791D01*
X906396Y918675D01*
X906501Y918556D01*
X906604Y918434D01*
X906703Y918310D01*
X906800Y918184D01*
X906893Y918055D01*
X906983Y917924D01*
X907069Y917790D01*
X907152Y917655D01*
X907232Y917517D01*
X907308Y917378D01*
X907381Y917237D01*
X907450Y917094D01*
X907516Y916949D01*
X907578Y916802D01*
X907636Y916655D01*
X907691Y916505D01*
X907742Y916355D01*
X907789Y916203D01*
X907832Y916050D01*
X907871Y915896D01*
X907907Y915741D01*
X907938Y915585D01*
X907966Y915429D01*
X907990Y915272D01*
X908010Y915114D01*
X908026Y914956D01*
X908038Y914797D01*
X908046Y914638D01*
X908050Y914479D01*
X908050Y914321D01*
X908046Y914162D01*
X908038Y914003D01*
X908026Y913844D01*
X908010Y913686D01*
X907990Y913528D01*
X907966Y913371D01*
X907938Y913215D01*
X907907Y913059D01*
X907871Y912904D01*
X907832Y912750D01*
X907789Y912597D01*
X907742Y912445D01*
X907691Y912295D01*
X907636Y912145D01*
X907578Y911998D01*
X907516Y911851D01*
X907450Y911706D01*
X907381Y911563D01*
X907308Y911422D01*
X907232Y911283D01*
X907152Y911145D01*
X907069Y911010D01*
X906983Y910876D01*
X906893Y910745D01*
X906800Y910616D01*
X906703Y910490D01*
X906604Y910366D01*
X906501Y910244D01*
X906396Y910125D01*
X906287Y910009D01*
X906176Y909896D01*
X906062Y909785D01*
X905945Y909677D01*
X905826Y909573D01*
X905703Y909471D01*
X905579Y909372D01*
X905452Y909277D01*
X905322Y909184D01*
X905191Y909095D01*
X905057Y909010D01*
X904921Y908927D01*
X904783Y908849D01*
X904643Y908773D01*
X904501Y908701D01*
X904358Y908633D01*
X904212Y908568D01*
X904066Y908507D01*
X903917Y908450D01*
X903768Y908396D01*
X903617Y908346D01*
X903465Y908300D01*
X903311Y908258D01*
X903157Y908219D01*
X903002Y908185D01*
X902846Y908154D01*
X902689Y908128D01*
X902532Y908105D01*
X902374Y908086D01*
X902216Y908071D01*
X902057Y908060D01*
X901899Y908053D01*
X901740Y908050D01*
X901581Y908051D01*
X901422Y908056D01*
X901263Y908065D01*
X901105Y908078D01*
X900947Y908095D01*
X900789Y908116D01*
X900632Y908140D01*
X900476Y908169D01*
X900320Y908202D01*
X900166Y908238D01*
X900012Y908279D01*
X899859Y908323D01*
X899708Y908371D01*
X899557Y908422D01*
X899408Y908478D01*
X899261Y908537D01*
X899115Y908600D01*
X898970Y908667D01*
X898828Y908737D01*
X898687Y908810D01*
X898548Y908888D01*
X898411Y908968D01*
X898276Y909052D01*
X898143Y909140D01*
X898013Y909230D01*
X897884Y909324D01*
X897759Y909421D01*
X897635Y909521D01*
X897514Y909625D01*
X897396Y909731D01*
X897281Y909840D01*
X897168Y909952D01*
X897058Y910067D01*
X896951Y910185D01*
X896847Y910305D01*
X896746Y910428D01*
X896648Y910553D01*
X896553Y910680D01*
X896462Y910810D01*
X896374Y910943D01*
X896289Y911077D01*
X896207Y911214D01*
X896129Y911352D01*
X896055Y911492D01*
X895984Y911635D01*
X895916Y911779D01*
X895853Y911924D01*
X895792Y912071D01*
X895736Y912220D01*
X895683Y912370D01*
X895634Y912521D01*
X895589Y912673D01*
X895548Y912827D01*
X895510Y912981D01*
X895477Y913137D01*
X895447Y913293D01*
X895421Y913450D01*
X895400Y913607D01*
X895382Y913765D01*
X895368Y913924D01*
X895358Y914082D01*
X895352Y914241D01*
X895350Y914400D01*
X895350Y863600D02*
X895352Y863759D01*
X895358Y863918D01*
X895368Y864076D01*
X895382Y864235D01*
X895400Y864393D01*
X895421Y864550D01*
X895447Y864707D01*
X895477Y864863D01*
X895510Y865019D01*
X895548Y865173D01*
X895589Y865327D01*
X895634Y865479D01*
X895683Y865630D01*
X895736Y865780D01*
X895792Y865929D01*
X895853Y866076D01*
X895916Y866221D01*
X895984Y866365D01*
X896055Y866508D01*
X896129Y866648D01*
X896207Y866786D01*
X896289Y866923D01*
X896374Y867057D01*
X896462Y867190D01*
X896553Y867320D01*
X896648Y867447D01*
X896746Y867572D01*
X896847Y867695D01*
X896951Y867815D01*
X897058Y867933D01*
X897168Y868048D01*
X897281Y868160D01*
X897396Y868269D01*
X897514Y868375D01*
X897635Y868479D01*
X897759Y868579D01*
X897884Y868676D01*
X898013Y868770D01*
X898143Y868860D01*
X898276Y868948D01*
X898411Y869032D01*
X898548Y869112D01*
X898687Y869190D01*
X898828Y869263D01*
X898970Y869333D01*
X899115Y869400D01*
X899261Y869463D01*
X899408Y869522D01*
X899557Y869578D01*
X899708Y869629D01*
X899859Y869677D01*
X900012Y869721D01*
X900166Y869762D01*
X900320Y869798D01*
X900476Y869831D01*
X900632Y869860D01*
X900789Y869884D01*
X900947Y869905D01*
X901105Y869922D01*
X901263Y869935D01*
X901422Y869944D01*
X901581Y869949D01*
X901740Y869950D01*
X901899Y869947D01*
X902057Y869940D01*
X902216Y869929D01*
X902374Y869914D01*
X902532Y869895D01*
X902689Y869872D01*
X902846Y869846D01*
X903002Y869815D01*
X903157Y869781D01*
X903311Y869742D01*
X903465Y869700D01*
X903617Y869654D01*
X903768Y869604D01*
X903917Y869550D01*
X904066Y869493D01*
X904212Y869432D01*
X904358Y869367D01*
X904501Y869299D01*
X904643Y869227D01*
X904783Y869151D01*
X904921Y869073D01*
X905057Y868990D01*
X905191Y868905D01*
X905322Y868816D01*
X905452Y868723D01*
X905579Y868628D01*
X905703Y868529D01*
X905826Y868427D01*
X905945Y868323D01*
X906062Y868215D01*
X906176Y868104D01*
X906287Y867991D01*
X906396Y867875D01*
X906501Y867756D01*
X906604Y867634D01*
X906703Y867510D01*
X906800Y867384D01*
X906893Y867255D01*
X906983Y867124D01*
X907069Y866990D01*
X907152Y866855D01*
X907232Y866717D01*
X907308Y866578D01*
X907381Y866437D01*
X907450Y866294D01*
X907516Y866149D01*
X907578Y866002D01*
X907636Y865855D01*
X907691Y865705D01*
X907742Y865555D01*
X907789Y865403D01*
X907832Y865250D01*
X907871Y865096D01*
X907907Y864941D01*
X907938Y864785D01*
X907966Y864629D01*
X907990Y864472D01*
X908010Y864314D01*
X908026Y864156D01*
X908038Y863997D01*
X908046Y863838D01*
X908050Y863679D01*
X908050Y863521D01*
X908046Y863362D01*
X908038Y863203D01*
X908026Y863044D01*
X908010Y862886D01*
X907990Y862728D01*
X907966Y862571D01*
X907938Y862415D01*
X907907Y862259D01*
X907871Y862104D01*
X907832Y861950D01*
X907789Y861797D01*
X907742Y861645D01*
X907691Y861495D01*
X907636Y861345D01*
X907578Y861198D01*
X907516Y861051D01*
X907450Y860906D01*
X907381Y860763D01*
X907308Y860622D01*
X907232Y860483D01*
X907152Y860345D01*
X907069Y860210D01*
X906983Y860076D01*
X906893Y859945D01*
X906800Y859816D01*
X906703Y859690D01*
X906604Y859566D01*
X906501Y859444D01*
X906396Y859325D01*
X906287Y859209D01*
X906176Y859096D01*
X906062Y858985D01*
X905945Y858877D01*
X905826Y858773D01*
X905703Y858671D01*
X905579Y858572D01*
X905452Y858477D01*
X905322Y858384D01*
X905191Y858295D01*
X905057Y858210D01*
X904921Y858127D01*
X904783Y858049D01*
X904643Y857973D01*
X904501Y857901D01*
X904358Y857833D01*
X904212Y857768D01*
X904066Y857707D01*
X903917Y857650D01*
X903768Y857596D01*
X903617Y857546D01*
X903465Y857500D01*
X903311Y857458D01*
X903157Y857419D01*
X903002Y857385D01*
X902846Y857354D01*
X902689Y857328D01*
X902532Y857305D01*
X902374Y857286D01*
X902216Y857271D01*
X902057Y857260D01*
X901899Y857253D01*
X901740Y857250D01*
X901581Y857251D01*
X901422Y857256D01*
X901263Y857265D01*
X901105Y857278D01*
X900947Y857295D01*
X900789Y857316D01*
X900632Y857340D01*
X900476Y857369D01*
X900320Y857402D01*
X900166Y857438D01*
X900012Y857479D01*
X899859Y857523D01*
X899708Y857571D01*
X899557Y857622D01*
X899408Y857678D01*
X899261Y857737D01*
X899115Y857800D01*
X898970Y857867D01*
X898828Y857937D01*
X898687Y858010D01*
X898548Y858088D01*
X898411Y858168D01*
X898276Y858252D01*
X898143Y858340D01*
X898013Y858430D01*
X897884Y858524D01*
X897759Y858621D01*
X897635Y858721D01*
X897514Y858825D01*
X897396Y858931D01*
X897281Y859040D01*
X897168Y859152D01*
X897058Y859267D01*
X896951Y859385D01*
X896847Y859505D01*
X896746Y859628D01*
X896648Y859753D01*
X896553Y859880D01*
X896462Y860010D01*
X896374Y860143D01*
X896289Y860277D01*
X896207Y860414D01*
X896129Y860552D01*
X896055Y860692D01*
X895984Y860835D01*
X895916Y860979D01*
X895853Y861124D01*
X895792Y861271D01*
X895736Y861420D01*
X895683Y861570D01*
X895634Y861721D01*
X895589Y861873D01*
X895548Y862027D01*
X895510Y862181D01*
X895477Y862337D01*
X895447Y862493D01*
X895421Y862650D01*
X895400Y862807D01*
X895382Y862965D01*
X895368Y863124D01*
X895358Y863282D01*
X895352Y863441D01*
X895350Y863600D01*
X895350Y723900D02*
X895352Y724059D01*
X895358Y724218D01*
X895368Y724376D01*
X895382Y724535D01*
X895400Y724693D01*
X895421Y724850D01*
X895447Y725007D01*
X895477Y725163D01*
X895510Y725319D01*
X895548Y725473D01*
X895589Y725627D01*
X895634Y725779D01*
X895683Y725930D01*
X895736Y726080D01*
X895792Y726229D01*
X895853Y726376D01*
X895916Y726521D01*
X895984Y726665D01*
X896055Y726808D01*
X896129Y726948D01*
X896207Y727086D01*
X896289Y727223D01*
X896374Y727357D01*
X896462Y727490D01*
X896553Y727620D01*
X896648Y727747D01*
X896746Y727872D01*
X896847Y727995D01*
X896951Y728115D01*
X897058Y728233D01*
X897168Y728348D01*
X897281Y728460D01*
X897396Y728569D01*
X897514Y728675D01*
X897635Y728779D01*
X897759Y728879D01*
X897884Y728976D01*
X898013Y729070D01*
X898143Y729160D01*
X898276Y729248D01*
X898411Y729332D01*
X898548Y729412D01*
X898687Y729490D01*
X898828Y729563D01*
X898970Y729633D01*
X899115Y729700D01*
X899261Y729763D01*
X899408Y729822D01*
X899557Y729878D01*
X899708Y729929D01*
X899859Y729977D01*
X900012Y730021D01*
X900166Y730062D01*
X900320Y730098D01*
X900476Y730131D01*
X900632Y730160D01*
X900789Y730184D01*
X900947Y730205D01*
X901105Y730222D01*
X901263Y730235D01*
X901422Y730244D01*
X901581Y730249D01*
X901740Y730250D01*
X901899Y730247D01*
X902057Y730240D01*
X902216Y730229D01*
X902374Y730214D01*
X902532Y730195D01*
X902689Y730172D01*
X902846Y730146D01*
X903002Y730115D01*
X903157Y730081D01*
X903311Y730042D01*
X903465Y730000D01*
X903617Y729954D01*
X903768Y729904D01*
X903917Y729850D01*
X904066Y729793D01*
X904212Y729732D01*
X904358Y729667D01*
X904501Y729599D01*
X904643Y729527D01*
X904783Y729451D01*
X904921Y729373D01*
X905057Y729290D01*
X905191Y729205D01*
X905322Y729116D01*
X905452Y729023D01*
X905579Y728928D01*
X905703Y728829D01*
X905826Y728727D01*
X905945Y728623D01*
X906062Y728515D01*
X906176Y728404D01*
X906287Y728291D01*
X906396Y728175D01*
X906501Y728056D01*
X906604Y727934D01*
X906703Y727810D01*
X906800Y727684D01*
X906893Y727555D01*
X906983Y727424D01*
X907069Y727290D01*
X907152Y727155D01*
X907232Y727017D01*
X907308Y726878D01*
X907381Y726737D01*
X907450Y726594D01*
X907516Y726449D01*
X907578Y726302D01*
X907636Y726155D01*
X907691Y726005D01*
X907742Y725855D01*
X907789Y725703D01*
X907832Y725550D01*
X907871Y725396D01*
X907907Y725241D01*
X907938Y725085D01*
X907966Y724929D01*
X907990Y724772D01*
X908010Y724614D01*
X908026Y724456D01*
X908038Y724297D01*
X908046Y724138D01*
X908050Y723979D01*
X908050Y723821D01*
X908046Y723662D01*
X908038Y723503D01*
X908026Y723344D01*
X908010Y723186D01*
X907990Y723028D01*
X907966Y722871D01*
X907938Y722715D01*
X907907Y722559D01*
X907871Y722404D01*
X907832Y722250D01*
X907789Y722097D01*
X907742Y721945D01*
X907691Y721795D01*
X907636Y721645D01*
X907578Y721498D01*
X907516Y721351D01*
X907450Y721206D01*
X907381Y721063D01*
X907308Y720922D01*
X907232Y720783D01*
X907152Y720645D01*
X907069Y720510D01*
X906983Y720376D01*
X906893Y720245D01*
X906800Y720116D01*
X906703Y719990D01*
X906604Y719866D01*
X906501Y719744D01*
X906396Y719625D01*
X906287Y719509D01*
X906176Y719396D01*
X906062Y719285D01*
X905945Y719177D01*
X905826Y719073D01*
X905703Y718971D01*
X905579Y718872D01*
X905452Y718777D01*
X905322Y718684D01*
X905191Y718595D01*
X905057Y718510D01*
X904921Y718427D01*
X904783Y718349D01*
X904643Y718273D01*
X904501Y718201D01*
X904358Y718133D01*
X904212Y718068D01*
X904066Y718007D01*
X903917Y717950D01*
X903768Y717896D01*
X903617Y717846D01*
X903465Y717800D01*
X903311Y717758D01*
X903157Y717719D01*
X903002Y717685D01*
X902846Y717654D01*
X902689Y717628D01*
X902532Y717605D01*
X902374Y717586D01*
X902216Y717571D01*
X902057Y717560D01*
X901899Y717553D01*
X901740Y717550D01*
X901581Y717551D01*
X901422Y717556D01*
X901263Y717565D01*
X901105Y717578D01*
X900947Y717595D01*
X900789Y717616D01*
X900632Y717640D01*
X900476Y717669D01*
X900320Y717702D01*
X900166Y717738D01*
X900012Y717779D01*
X899859Y717823D01*
X899708Y717871D01*
X899557Y717922D01*
X899408Y717978D01*
X899261Y718037D01*
X899115Y718100D01*
X898970Y718167D01*
X898828Y718237D01*
X898687Y718310D01*
X898548Y718388D01*
X898411Y718468D01*
X898276Y718552D01*
X898143Y718640D01*
X898013Y718730D01*
X897884Y718824D01*
X897759Y718921D01*
X897635Y719021D01*
X897514Y719125D01*
X897396Y719231D01*
X897281Y719340D01*
X897168Y719452D01*
X897058Y719567D01*
X896951Y719685D01*
X896847Y719805D01*
X896746Y719928D01*
X896648Y720053D01*
X896553Y720180D01*
X896462Y720310D01*
X896374Y720443D01*
X896289Y720577D01*
X896207Y720714D01*
X896129Y720852D01*
X896055Y720992D01*
X895984Y721135D01*
X895916Y721279D01*
X895853Y721424D01*
X895792Y721571D01*
X895736Y721720D01*
X895683Y721870D01*
X895634Y722021D01*
X895589Y722173D01*
X895548Y722327D01*
X895510Y722481D01*
X895477Y722637D01*
X895447Y722793D01*
X895421Y722950D01*
X895400Y723107D01*
X895382Y723265D01*
X895368Y723424D01*
X895358Y723582D01*
X895352Y723741D01*
X895350Y723900D01*
X895350Y673100D02*
X895352Y673259D01*
X895358Y673418D01*
X895368Y673576D01*
X895382Y673735D01*
X895400Y673893D01*
X895421Y674050D01*
X895447Y674207D01*
X895477Y674363D01*
X895510Y674519D01*
X895548Y674673D01*
X895589Y674827D01*
X895634Y674979D01*
X895683Y675130D01*
X895736Y675280D01*
X895792Y675429D01*
X895853Y675576D01*
X895916Y675721D01*
X895984Y675865D01*
X896055Y676008D01*
X896129Y676148D01*
X896207Y676286D01*
X896289Y676423D01*
X896374Y676557D01*
X896462Y676690D01*
X896553Y676820D01*
X896648Y676947D01*
X896746Y677072D01*
X896847Y677195D01*
X896951Y677315D01*
X897058Y677433D01*
X897168Y677548D01*
X897281Y677660D01*
X897396Y677769D01*
X897514Y677875D01*
X897635Y677979D01*
X897759Y678079D01*
X897884Y678176D01*
X898013Y678270D01*
X898143Y678360D01*
X898276Y678448D01*
X898411Y678532D01*
X898548Y678612D01*
X898687Y678690D01*
X898828Y678763D01*
X898970Y678833D01*
X899115Y678900D01*
X899261Y678963D01*
X899408Y679022D01*
X899557Y679078D01*
X899708Y679129D01*
X899859Y679177D01*
X900012Y679221D01*
X900166Y679262D01*
X900320Y679298D01*
X900476Y679331D01*
X900632Y679360D01*
X900789Y679384D01*
X900947Y679405D01*
X901105Y679422D01*
X901263Y679435D01*
X901422Y679444D01*
X901581Y679449D01*
X901740Y679450D01*
X901899Y679447D01*
X902057Y679440D01*
X902216Y679429D01*
X902374Y679414D01*
X902532Y679395D01*
X902689Y679372D01*
X902846Y679346D01*
X903002Y679315D01*
X903157Y679281D01*
X903311Y679242D01*
X903465Y679200D01*
X903617Y679154D01*
X903768Y679104D01*
X903917Y679050D01*
X904066Y678993D01*
X904212Y678932D01*
X904358Y678867D01*
X904501Y678799D01*
X904643Y678727D01*
X904783Y678651D01*
X904921Y678573D01*
X905057Y678490D01*
X905191Y678405D01*
X905322Y678316D01*
X905452Y678223D01*
X905579Y678128D01*
X905703Y678029D01*
X905826Y677927D01*
X905945Y677823D01*
X906062Y677715D01*
X906176Y677604D01*
X906287Y677491D01*
X906396Y677375D01*
X906501Y677256D01*
X906604Y677134D01*
X906703Y677010D01*
X906800Y676884D01*
X906893Y676755D01*
X906983Y676624D01*
X907069Y676490D01*
X907152Y676355D01*
X907232Y676217D01*
X907308Y676078D01*
X907381Y675937D01*
X907450Y675794D01*
X907516Y675649D01*
X907578Y675502D01*
X907636Y675355D01*
X907691Y675205D01*
X907742Y675055D01*
X907789Y674903D01*
X907832Y674750D01*
X907871Y674596D01*
X907907Y674441D01*
X907938Y674285D01*
X907966Y674129D01*
X907990Y673972D01*
X908010Y673814D01*
X908026Y673656D01*
X908038Y673497D01*
X908046Y673338D01*
X908050Y673179D01*
X908050Y673021D01*
X908046Y672862D01*
X908038Y672703D01*
X908026Y672544D01*
X908010Y672386D01*
X907990Y672228D01*
X907966Y672071D01*
X907938Y671915D01*
X907907Y671759D01*
X907871Y671604D01*
X907832Y671450D01*
X907789Y671297D01*
X907742Y671145D01*
X907691Y670995D01*
X907636Y670845D01*
X907578Y670698D01*
X907516Y670551D01*
X907450Y670406D01*
X907381Y670263D01*
X907308Y670122D01*
X907232Y669983D01*
X907152Y669845D01*
X907069Y669710D01*
X906983Y669576D01*
X906893Y669445D01*
X906800Y669316D01*
X906703Y669190D01*
X906604Y669066D01*
X906501Y668944D01*
X906396Y668825D01*
X906287Y668709D01*
X906176Y668596D01*
X906062Y668485D01*
X905945Y668377D01*
X905826Y668273D01*
X905703Y668171D01*
X905579Y668072D01*
X905452Y667977D01*
X905322Y667884D01*
X905191Y667795D01*
X905057Y667710D01*
X904921Y667627D01*
X904783Y667549D01*
X904643Y667473D01*
X904501Y667401D01*
X904358Y667333D01*
X904212Y667268D01*
X904066Y667207D01*
X903917Y667150D01*
X903768Y667096D01*
X903617Y667046D01*
X903465Y667000D01*
X903311Y666958D01*
X903157Y666919D01*
X903002Y666885D01*
X902846Y666854D01*
X902689Y666828D01*
X902532Y666805D01*
X902374Y666786D01*
X902216Y666771D01*
X902057Y666760D01*
X901899Y666753D01*
X901740Y666750D01*
X901581Y666751D01*
X901422Y666756D01*
X901263Y666765D01*
X901105Y666778D01*
X900947Y666795D01*
X900789Y666816D01*
X900632Y666840D01*
X900476Y666869D01*
X900320Y666902D01*
X900166Y666938D01*
X900012Y666979D01*
X899859Y667023D01*
X899708Y667071D01*
X899557Y667122D01*
X899408Y667178D01*
X899261Y667237D01*
X899115Y667300D01*
X898970Y667367D01*
X898828Y667437D01*
X898687Y667510D01*
X898548Y667588D01*
X898411Y667668D01*
X898276Y667752D01*
X898143Y667840D01*
X898013Y667930D01*
X897884Y668024D01*
X897759Y668121D01*
X897635Y668221D01*
X897514Y668325D01*
X897396Y668431D01*
X897281Y668540D01*
X897168Y668652D01*
X897058Y668767D01*
X896951Y668885D01*
X896847Y669005D01*
X896746Y669128D01*
X896648Y669253D01*
X896553Y669380D01*
X896462Y669510D01*
X896374Y669643D01*
X896289Y669777D01*
X896207Y669914D01*
X896129Y670052D01*
X896055Y670192D01*
X895984Y670335D01*
X895916Y670479D01*
X895853Y670624D01*
X895792Y670771D01*
X895736Y670920D01*
X895683Y671070D01*
X895634Y671221D01*
X895589Y671373D01*
X895548Y671527D01*
X895510Y671681D01*
X895477Y671837D01*
X895447Y671993D01*
X895421Y672150D01*
X895400Y672307D01*
X895382Y672465D01*
X895368Y672624D01*
X895358Y672782D01*
X895352Y672941D01*
X895350Y673100D01*
X895350Y622300D02*
X895352Y622459D01*
X895358Y622618D01*
X895368Y622776D01*
X895382Y622935D01*
X895400Y623093D01*
X895421Y623250D01*
X895447Y623407D01*
X895477Y623563D01*
X895510Y623719D01*
X895548Y623873D01*
X895589Y624027D01*
X895634Y624179D01*
X895683Y624330D01*
X895736Y624480D01*
X895792Y624629D01*
X895853Y624776D01*
X895916Y624921D01*
X895984Y625065D01*
X896055Y625208D01*
X896129Y625348D01*
X896207Y625486D01*
X896289Y625623D01*
X896374Y625757D01*
X896462Y625890D01*
X896553Y626020D01*
X896648Y626147D01*
X896746Y626272D01*
X896847Y626395D01*
X896951Y626515D01*
X897058Y626633D01*
X897168Y626748D01*
X897281Y626860D01*
X897396Y626969D01*
X897514Y627075D01*
X897635Y627179D01*
X897759Y627279D01*
X897884Y627376D01*
X898013Y627470D01*
X898143Y627560D01*
X898276Y627648D01*
X898411Y627732D01*
X898548Y627812D01*
X898687Y627890D01*
X898828Y627963D01*
X898970Y628033D01*
X899115Y628100D01*
X899261Y628163D01*
X899408Y628222D01*
X899557Y628278D01*
X899708Y628329D01*
X899859Y628377D01*
X900012Y628421D01*
X900166Y628462D01*
X900320Y628498D01*
X900476Y628531D01*
X900632Y628560D01*
X900789Y628584D01*
X900947Y628605D01*
X901105Y628622D01*
X901263Y628635D01*
X901422Y628644D01*
X901581Y628649D01*
X901740Y628650D01*
X901899Y628647D01*
X902057Y628640D01*
X902216Y628629D01*
X902374Y628614D01*
X902532Y628595D01*
X902689Y628572D01*
X902846Y628546D01*
X903002Y628515D01*
X903157Y628481D01*
X903311Y628442D01*
X903465Y628400D01*
X903617Y628354D01*
X903768Y628304D01*
X903917Y628250D01*
X904066Y628193D01*
X904212Y628132D01*
X904358Y628067D01*
X904501Y627999D01*
X904643Y627927D01*
X904783Y627851D01*
X904921Y627773D01*
X905057Y627690D01*
X905191Y627605D01*
X905322Y627516D01*
X905452Y627423D01*
X905579Y627328D01*
X905703Y627229D01*
X905826Y627127D01*
X905945Y627023D01*
X906062Y626915D01*
X906176Y626804D01*
X906287Y626691D01*
X906396Y626575D01*
X906501Y626456D01*
X906604Y626334D01*
X906703Y626210D01*
X906800Y626084D01*
X906893Y625955D01*
X906983Y625824D01*
X907069Y625690D01*
X907152Y625555D01*
X907232Y625417D01*
X907308Y625278D01*
X907381Y625137D01*
X907450Y624994D01*
X907516Y624849D01*
X907578Y624702D01*
X907636Y624555D01*
X907691Y624405D01*
X907742Y624255D01*
X907789Y624103D01*
X907832Y623950D01*
X907871Y623796D01*
X907907Y623641D01*
X907938Y623485D01*
X907966Y623329D01*
X907990Y623172D01*
X908010Y623014D01*
X908026Y622856D01*
X908038Y622697D01*
X908046Y622538D01*
X908050Y622379D01*
X908050Y622221D01*
X908046Y622062D01*
X908038Y621903D01*
X908026Y621744D01*
X908010Y621586D01*
X907990Y621428D01*
X907966Y621271D01*
X907938Y621115D01*
X907907Y620959D01*
X907871Y620804D01*
X907832Y620650D01*
X907789Y620497D01*
X907742Y620345D01*
X907691Y620195D01*
X907636Y620045D01*
X907578Y619898D01*
X907516Y619751D01*
X907450Y619606D01*
X907381Y619463D01*
X907308Y619322D01*
X907232Y619183D01*
X907152Y619045D01*
X907069Y618910D01*
X906983Y618776D01*
X906893Y618645D01*
X906800Y618516D01*
X906703Y618390D01*
X906604Y618266D01*
X906501Y618144D01*
X906396Y618025D01*
X906287Y617909D01*
X906176Y617796D01*
X906062Y617685D01*
X905945Y617577D01*
X905826Y617473D01*
X905703Y617371D01*
X905579Y617272D01*
X905452Y617177D01*
X905322Y617084D01*
X905191Y616995D01*
X905057Y616910D01*
X904921Y616827D01*
X904783Y616749D01*
X904643Y616673D01*
X904501Y616601D01*
X904358Y616533D01*
X904212Y616468D01*
X904066Y616407D01*
X903917Y616350D01*
X903768Y616296D01*
X903617Y616246D01*
X903465Y616200D01*
X903311Y616158D01*
X903157Y616119D01*
X903002Y616085D01*
X902846Y616054D01*
X902689Y616028D01*
X902532Y616005D01*
X902374Y615986D01*
X902216Y615971D01*
X902057Y615960D01*
X901899Y615953D01*
X901740Y615950D01*
X901581Y615951D01*
X901422Y615956D01*
X901263Y615965D01*
X901105Y615978D01*
X900947Y615995D01*
X900789Y616016D01*
X900632Y616040D01*
X900476Y616069D01*
X900320Y616102D01*
X900166Y616138D01*
X900012Y616179D01*
X899859Y616223D01*
X899708Y616271D01*
X899557Y616322D01*
X899408Y616378D01*
X899261Y616437D01*
X899115Y616500D01*
X898970Y616567D01*
X898828Y616637D01*
X898687Y616710D01*
X898548Y616788D01*
X898411Y616868D01*
X898276Y616952D01*
X898143Y617040D01*
X898013Y617130D01*
X897884Y617224D01*
X897759Y617321D01*
X897635Y617421D01*
X897514Y617525D01*
X897396Y617631D01*
X897281Y617740D01*
X897168Y617852D01*
X897058Y617967D01*
X896951Y618085D01*
X896847Y618205D01*
X896746Y618328D01*
X896648Y618453D01*
X896553Y618580D01*
X896462Y618710D01*
X896374Y618843D01*
X896289Y618977D01*
X896207Y619114D01*
X896129Y619252D01*
X896055Y619392D01*
X895984Y619535D01*
X895916Y619679D01*
X895853Y619824D01*
X895792Y619971D01*
X895736Y620120D01*
X895683Y620270D01*
X895634Y620421D01*
X895589Y620573D01*
X895548Y620727D01*
X895510Y620881D01*
X895477Y621037D01*
X895447Y621193D01*
X895421Y621350D01*
X895400Y621507D01*
X895382Y621665D01*
X895368Y621824D01*
X895358Y621982D01*
X895352Y622141D01*
X895350Y622300D01*
X895350Y482600D02*
X895352Y482759D01*
X895358Y482918D01*
X895368Y483076D01*
X895382Y483235D01*
X895400Y483393D01*
X895421Y483550D01*
X895447Y483707D01*
X895477Y483863D01*
X895510Y484019D01*
X895548Y484173D01*
X895589Y484327D01*
X895634Y484479D01*
X895683Y484630D01*
X895736Y484780D01*
X895792Y484929D01*
X895853Y485076D01*
X895916Y485221D01*
X895984Y485365D01*
X896055Y485508D01*
X896129Y485648D01*
X896207Y485786D01*
X896289Y485923D01*
X896374Y486057D01*
X896462Y486190D01*
X896553Y486320D01*
X896648Y486447D01*
X896746Y486572D01*
X896847Y486695D01*
X896951Y486815D01*
X897058Y486933D01*
X897168Y487048D01*
X897281Y487160D01*
X897396Y487269D01*
X897514Y487375D01*
X897635Y487479D01*
X897759Y487579D01*
X897884Y487676D01*
X898013Y487770D01*
X898143Y487860D01*
X898276Y487948D01*
X898411Y488032D01*
X898548Y488112D01*
X898687Y488190D01*
X898828Y488263D01*
X898970Y488333D01*
X899115Y488400D01*
X899261Y488463D01*
X899408Y488522D01*
X899557Y488578D01*
X899708Y488629D01*
X899859Y488677D01*
X900012Y488721D01*
X900166Y488762D01*
X900320Y488798D01*
X900476Y488831D01*
X900632Y488860D01*
X900789Y488884D01*
X900947Y488905D01*
X901105Y488922D01*
X901263Y488935D01*
X901422Y488944D01*
X901581Y488949D01*
X901740Y488950D01*
X901899Y488947D01*
X902057Y488940D01*
X902216Y488929D01*
X902374Y488914D01*
X902532Y488895D01*
X902689Y488872D01*
X902846Y488846D01*
X903002Y488815D01*
X903157Y488781D01*
X903311Y488742D01*
X903465Y488700D01*
X903617Y488654D01*
X903768Y488604D01*
X903917Y488550D01*
X904066Y488493D01*
X904212Y488432D01*
X904358Y488367D01*
X904501Y488299D01*
X904643Y488227D01*
X904783Y488151D01*
X904921Y488073D01*
X905057Y487990D01*
X905191Y487905D01*
X905322Y487816D01*
X905452Y487723D01*
X905579Y487628D01*
X905703Y487529D01*
X905826Y487427D01*
X905945Y487323D01*
X906062Y487215D01*
X906176Y487104D01*
X906287Y486991D01*
X906396Y486875D01*
X906501Y486756D01*
X906604Y486634D01*
X906703Y486510D01*
X906800Y486384D01*
X906893Y486255D01*
X906983Y486124D01*
X907069Y485990D01*
X907152Y485855D01*
X907232Y485717D01*
X907308Y485578D01*
X907381Y485437D01*
X907450Y485294D01*
X907516Y485149D01*
X907578Y485002D01*
X907636Y484855D01*
X907691Y484705D01*
X907742Y484555D01*
X907789Y484403D01*
X907832Y484250D01*
X907871Y484096D01*
X907907Y483941D01*
X907938Y483785D01*
X907966Y483629D01*
X907990Y483472D01*
X908010Y483314D01*
X908026Y483156D01*
X908038Y482997D01*
X908046Y482838D01*
X908050Y482679D01*
X908050Y482521D01*
X908046Y482362D01*
X908038Y482203D01*
X908026Y482044D01*
X908010Y481886D01*
X907990Y481728D01*
X907966Y481571D01*
X907938Y481415D01*
X907907Y481259D01*
X907871Y481104D01*
X907832Y480950D01*
X907789Y480797D01*
X907742Y480645D01*
X907691Y480495D01*
X907636Y480345D01*
X907578Y480198D01*
X907516Y480051D01*
X907450Y479906D01*
X907381Y479763D01*
X907308Y479622D01*
X907232Y479483D01*
X907152Y479345D01*
X907069Y479210D01*
X906983Y479076D01*
X906893Y478945D01*
X906800Y478816D01*
X906703Y478690D01*
X906604Y478566D01*
X906501Y478444D01*
X906396Y478325D01*
X906287Y478209D01*
X906176Y478096D01*
X906062Y477985D01*
X905945Y477877D01*
X905826Y477773D01*
X905703Y477671D01*
X905579Y477572D01*
X905452Y477477D01*
X905322Y477384D01*
X905191Y477295D01*
X905057Y477210D01*
X904921Y477127D01*
X904783Y477049D01*
X904643Y476973D01*
X904501Y476901D01*
X904358Y476833D01*
X904212Y476768D01*
X904066Y476707D01*
X903917Y476650D01*
X903768Y476596D01*
X903617Y476546D01*
X903465Y476500D01*
X903311Y476458D01*
X903157Y476419D01*
X903002Y476385D01*
X902846Y476354D01*
X902689Y476328D01*
X902532Y476305D01*
X902374Y476286D01*
X902216Y476271D01*
X902057Y476260D01*
X901899Y476253D01*
X901740Y476250D01*
X901581Y476251D01*
X901422Y476256D01*
X901263Y476265D01*
X901105Y476278D01*
X900947Y476295D01*
X900789Y476316D01*
X900632Y476340D01*
X900476Y476369D01*
X900320Y476402D01*
X900166Y476438D01*
X900012Y476479D01*
X899859Y476523D01*
X899708Y476571D01*
X899557Y476622D01*
X899408Y476678D01*
X899261Y476737D01*
X899115Y476800D01*
X898970Y476867D01*
X898828Y476937D01*
X898687Y477010D01*
X898548Y477088D01*
X898411Y477168D01*
X898276Y477252D01*
X898143Y477340D01*
X898013Y477430D01*
X897884Y477524D01*
X897759Y477621D01*
X897635Y477721D01*
X897514Y477825D01*
X897396Y477931D01*
X897281Y478040D01*
X897168Y478152D01*
X897058Y478267D01*
X896951Y478385D01*
X896847Y478505D01*
X896746Y478628D01*
X896648Y478753D01*
X896553Y478880D01*
X896462Y479010D01*
X896374Y479143D01*
X896289Y479277D01*
X896207Y479414D01*
X896129Y479552D01*
X896055Y479692D01*
X895984Y479835D01*
X895916Y479979D01*
X895853Y480124D01*
X895792Y480271D01*
X895736Y480420D01*
X895683Y480570D01*
X895634Y480721D01*
X895589Y480873D01*
X895548Y481027D01*
X895510Y481181D01*
X895477Y481337D01*
X895447Y481493D01*
X895421Y481650D01*
X895400Y481807D01*
X895382Y481965D01*
X895368Y482124D01*
X895358Y482282D01*
X895352Y482441D01*
X895350Y482600D01*
X895350Y431800D02*
X895352Y431959D01*
X895358Y432118D01*
X895368Y432276D01*
X895382Y432435D01*
X895400Y432593D01*
X895421Y432750D01*
X895447Y432907D01*
X895477Y433063D01*
X895510Y433219D01*
X895548Y433373D01*
X895589Y433527D01*
X895634Y433679D01*
X895683Y433830D01*
X895736Y433980D01*
X895792Y434129D01*
X895853Y434276D01*
X895916Y434421D01*
X895984Y434565D01*
X896055Y434708D01*
X896129Y434848D01*
X896207Y434986D01*
X896289Y435123D01*
X896374Y435257D01*
X896462Y435390D01*
X896553Y435520D01*
X896648Y435647D01*
X896746Y435772D01*
X896847Y435895D01*
X896951Y436015D01*
X897058Y436133D01*
X897168Y436248D01*
X897281Y436360D01*
X897396Y436469D01*
X897514Y436575D01*
X897635Y436679D01*
X897759Y436779D01*
X897884Y436876D01*
X898013Y436970D01*
X898143Y437060D01*
X898276Y437148D01*
X898411Y437232D01*
X898548Y437312D01*
X898687Y437390D01*
X898828Y437463D01*
X898970Y437533D01*
X899115Y437600D01*
X899261Y437663D01*
X899408Y437722D01*
X899557Y437778D01*
X899708Y437829D01*
X899859Y437877D01*
X900012Y437921D01*
X900166Y437962D01*
X900320Y437998D01*
X900476Y438031D01*
X900632Y438060D01*
X900789Y438084D01*
X900947Y438105D01*
X901105Y438122D01*
X901263Y438135D01*
X901422Y438144D01*
X901581Y438149D01*
X901740Y438150D01*
X901899Y438147D01*
X902057Y438140D01*
X902216Y438129D01*
X902374Y438114D01*
X902532Y438095D01*
X902689Y438072D01*
X902846Y438046D01*
X903002Y438015D01*
X903157Y437981D01*
X903311Y437942D01*
X903465Y437900D01*
X903617Y437854D01*
X903768Y437804D01*
X903917Y437750D01*
X904066Y437693D01*
X904212Y437632D01*
X904358Y437567D01*
X904501Y437499D01*
X904643Y437427D01*
X904783Y437351D01*
X904921Y437273D01*
X905057Y437190D01*
X905191Y437105D01*
X905322Y437016D01*
X905452Y436923D01*
X905579Y436828D01*
X905703Y436729D01*
X905826Y436627D01*
X905945Y436523D01*
X906062Y436415D01*
X906176Y436304D01*
X906287Y436191D01*
X906396Y436075D01*
X906501Y435956D01*
X906604Y435834D01*
X906703Y435710D01*
X906800Y435584D01*
X906893Y435455D01*
X906983Y435324D01*
X907069Y435190D01*
X907152Y435055D01*
X907232Y434917D01*
X907308Y434778D01*
X907381Y434637D01*
X907450Y434494D01*
X907516Y434349D01*
X907578Y434202D01*
X907636Y434055D01*
X907691Y433905D01*
X907742Y433755D01*
X907789Y433603D01*
X907832Y433450D01*
X907871Y433296D01*
X907907Y433141D01*
X907938Y432985D01*
X907966Y432829D01*
X907990Y432672D01*
X908010Y432514D01*
X908026Y432356D01*
X908038Y432197D01*
X908046Y432038D01*
X908050Y431879D01*
X908050Y431721D01*
X908046Y431562D01*
X908038Y431403D01*
X908026Y431244D01*
X908010Y431086D01*
X907990Y430928D01*
X907966Y430771D01*
X907938Y430615D01*
X907907Y430459D01*
X907871Y430304D01*
X907832Y430150D01*
X907789Y429997D01*
X907742Y429845D01*
X907691Y429695D01*
X907636Y429545D01*
X907578Y429398D01*
X907516Y429251D01*
X907450Y429106D01*
X907381Y428963D01*
X907308Y428822D01*
X907232Y428683D01*
X907152Y428545D01*
X907069Y428410D01*
X906983Y428276D01*
X906893Y428145D01*
X906800Y428016D01*
X906703Y427890D01*
X906604Y427766D01*
X906501Y427644D01*
X906396Y427525D01*
X906287Y427409D01*
X906176Y427296D01*
X906062Y427185D01*
X905945Y427077D01*
X905826Y426973D01*
X905703Y426871D01*
X905579Y426772D01*
X905452Y426677D01*
X905322Y426584D01*
X905191Y426495D01*
X905057Y426410D01*
X904921Y426327D01*
X904783Y426249D01*
X904643Y426173D01*
X904501Y426101D01*
X904358Y426033D01*
X904212Y425968D01*
X904066Y425907D01*
X903917Y425850D01*
X903768Y425796D01*
X903617Y425746D01*
X903465Y425700D01*
X903311Y425658D01*
X903157Y425619D01*
X903002Y425585D01*
X902846Y425554D01*
X902689Y425528D01*
X902532Y425505D01*
X902374Y425486D01*
X902216Y425471D01*
X902057Y425460D01*
X901899Y425453D01*
X901740Y425450D01*
X901581Y425451D01*
X901422Y425456D01*
X901263Y425465D01*
X901105Y425478D01*
X900947Y425495D01*
X900789Y425516D01*
X900632Y425540D01*
X900476Y425569D01*
X900320Y425602D01*
X900166Y425638D01*
X900012Y425679D01*
X899859Y425723D01*
X899708Y425771D01*
X899557Y425822D01*
X899408Y425878D01*
X899261Y425937D01*
X899115Y426000D01*
X898970Y426067D01*
X898828Y426137D01*
X898687Y426210D01*
X898548Y426288D01*
X898411Y426368D01*
X898276Y426452D01*
X898143Y426540D01*
X898013Y426630D01*
X897884Y426724D01*
X897759Y426821D01*
X897635Y426921D01*
X897514Y427025D01*
X897396Y427131D01*
X897281Y427240D01*
X897168Y427352D01*
X897058Y427467D01*
X896951Y427585D01*
X896847Y427705D01*
X896746Y427828D01*
X896648Y427953D01*
X896553Y428080D01*
X896462Y428210D01*
X896374Y428343D01*
X896289Y428477D01*
X896207Y428614D01*
X896129Y428752D01*
X896055Y428892D01*
X895984Y429035D01*
X895916Y429179D01*
X895853Y429324D01*
X895792Y429471D01*
X895736Y429620D01*
X895683Y429770D01*
X895634Y429921D01*
X895589Y430073D01*
X895548Y430227D01*
X895510Y430381D01*
X895477Y430537D01*
X895447Y430693D01*
X895421Y430850D01*
X895400Y431007D01*
X895382Y431165D01*
X895368Y431324D01*
X895358Y431482D01*
X895352Y431641D01*
X895350Y431800D01*
X895350Y381000D02*
X895352Y381159D01*
X895358Y381318D01*
X895368Y381476D01*
X895382Y381635D01*
X895400Y381793D01*
X895421Y381950D01*
X895447Y382107D01*
X895477Y382263D01*
X895510Y382419D01*
X895548Y382573D01*
X895589Y382727D01*
X895634Y382879D01*
X895683Y383030D01*
X895736Y383180D01*
X895792Y383329D01*
X895853Y383476D01*
X895916Y383621D01*
X895984Y383765D01*
X896055Y383908D01*
X896129Y384048D01*
X896207Y384186D01*
X896289Y384323D01*
X896374Y384457D01*
X896462Y384590D01*
X896553Y384720D01*
X896648Y384847D01*
X896746Y384972D01*
X896847Y385095D01*
X896951Y385215D01*
X897058Y385333D01*
X897168Y385448D01*
X897281Y385560D01*
X897396Y385669D01*
X897514Y385775D01*
X897635Y385879D01*
X897759Y385979D01*
X897884Y386076D01*
X898013Y386170D01*
X898143Y386260D01*
X898276Y386348D01*
X898411Y386432D01*
X898548Y386512D01*
X898687Y386590D01*
X898828Y386663D01*
X898970Y386733D01*
X899115Y386800D01*
X899261Y386863D01*
X899408Y386922D01*
X899557Y386978D01*
X899708Y387029D01*
X899859Y387077D01*
X900012Y387121D01*
X900166Y387162D01*
X900320Y387198D01*
X900476Y387231D01*
X900632Y387260D01*
X900789Y387284D01*
X900947Y387305D01*
X901105Y387322D01*
X901263Y387335D01*
X901422Y387344D01*
X901581Y387349D01*
X901740Y387350D01*
X901899Y387347D01*
X902057Y387340D01*
X902216Y387329D01*
X902374Y387314D01*
X902532Y387295D01*
X902689Y387272D01*
X902846Y387246D01*
X903002Y387215D01*
X903157Y387181D01*
X903311Y387142D01*
X903465Y387100D01*
X903617Y387054D01*
X903768Y387004D01*
X903917Y386950D01*
X904066Y386893D01*
X904212Y386832D01*
X904358Y386767D01*
X904501Y386699D01*
X904643Y386627D01*
X904783Y386551D01*
X904921Y386473D01*
X905057Y386390D01*
X905191Y386305D01*
X905322Y386216D01*
X905452Y386123D01*
X905579Y386028D01*
X905703Y385929D01*
X905826Y385827D01*
X905945Y385723D01*
X906062Y385615D01*
X906176Y385504D01*
X906287Y385391D01*
X906396Y385275D01*
X906501Y385156D01*
X906604Y385034D01*
X906703Y384910D01*
X906800Y384784D01*
X906893Y384655D01*
X906983Y384524D01*
X907069Y384390D01*
X907152Y384255D01*
X907232Y384117D01*
X907308Y383978D01*
X907381Y383837D01*
X907450Y383694D01*
X907516Y383549D01*
X907578Y383402D01*
X907636Y383255D01*
X907691Y383105D01*
X907742Y382955D01*
X907789Y382803D01*
X907832Y382650D01*
X907871Y382496D01*
X907907Y382341D01*
X907938Y382185D01*
X907966Y382029D01*
X907990Y381872D01*
X908010Y381714D01*
X908026Y381556D01*
X908038Y381397D01*
X908046Y381238D01*
X908050Y381079D01*
X908050Y380921D01*
X908046Y380762D01*
X908038Y380603D01*
X908026Y380444D01*
X908010Y380286D01*
X907990Y380128D01*
X907966Y379971D01*
X907938Y379815D01*
X907907Y379659D01*
X907871Y379504D01*
X907832Y379350D01*
X907789Y379197D01*
X907742Y379045D01*
X907691Y378895D01*
X907636Y378745D01*
X907578Y378598D01*
X907516Y378451D01*
X907450Y378306D01*
X907381Y378163D01*
X907308Y378022D01*
X907232Y377883D01*
X907152Y377745D01*
X907069Y377610D01*
X906983Y377476D01*
X906893Y377345D01*
X906800Y377216D01*
X906703Y377090D01*
X906604Y376966D01*
X906501Y376844D01*
X906396Y376725D01*
X906287Y376609D01*
X906176Y376496D01*
X906062Y376385D01*
X905945Y376277D01*
X905826Y376173D01*
X905703Y376071D01*
X905579Y375972D01*
X905452Y375877D01*
X905322Y375784D01*
X905191Y375695D01*
X905057Y375610D01*
X904921Y375527D01*
X904783Y375449D01*
X904643Y375373D01*
X904501Y375301D01*
X904358Y375233D01*
X904212Y375168D01*
X904066Y375107D01*
X903917Y375050D01*
X903768Y374996D01*
X903617Y374946D01*
X903465Y374900D01*
X903311Y374858D01*
X903157Y374819D01*
X903002Y374785D01*
X902846Y374754D01*
X902689Y374728D01*
X902532Y374705D01*
X902374Y374686D01*
X902216Y374671D01*
X902057Y374660D01*
X901899Y374653D01*
X901740Y374650D01*
X901581Y374651D01*
X901422Y374656D01*
X901263Y374665D01*
X901105Y374678D01*
X900947Y374695D01*
X900789Y374716D01*
X900632Y374740D01*
X900476Y374769D01*
X900320Y374802D01*
X900166Y374838D01*
X900012Y374879D01*
X899859Y374923D01*
X899708Y374971D01*
X899557Y375022D01*
X899408Y375078D01*
X899261Y375137D01*
X899115Y375200D01*
X898970Y375267D01*
X898828Y375337D01*
X898687Y375410D01*
X898548Y375488D01*
X898411Y375568D01*
X898276Y375652D01*
X898143Y375740D01*
X898013Y375830D01*
X897884Y375924D01*
X897759Y376021D01*
X897635Y376121D01*
X897514Y376225D01*
X897396Y376331D01*
X897281Y376440D01*
X897168Y376552D01*
X897058Y376667D01*
X896951Y376785D01*
X896847Y376905D01*
X896746Y377028D01*
X896648Y377153D01*
X896553Y377280D01*
X896462Y377410D01*
X896374Y377543D01*
X896289Y377677D01*
X896207Y377814D01*
X896129Y377952D01*
X896055Y378092D01*
X895984Y378235D01*
X895916Y378379D01*
X895853Y378524D01*
X895792Y378671D01*
X895736Y378820D01*
X895683Y378970D01*
X895634Y379121D01*
X895589Y379273D01*
X895548Y379427D01*
X895510Y379581D01*
X895477Y379737D01*
X895447Y379893D01*
X895421Y380050D01*
X895400Y380207D01*
X895382Y380365D01*
X895368Y380524D01*
X895358Y380682D01*
X895352Y380841D01*
X895350Y381000D01*
X895350Y241300D02*
X895352Y241459D01*
X895358Y241618D01*
X895368Y241776D01*
X895382Y241935D01*
X895400Y242093D01*
X895421Y242250D01*
X895447Y242407D01*
X895477Y242563D01*
X895510Y242719D01*
X895548Y242873D01*
X895589Y243027D01*
X895634Y243179D01*
X895683Y243330D01*
X895736Y243480D01*
X895792Y243629D01*
X895853Y243776D01*
X895916Y243921D01*
X895984Y244065D01*
X896055Y244208D01*
X896129Y244348D01*
X896207Y244486D01*
X896289Y244623D01*
X896374Y244757D01*
X896462Y244890D01*
X896553Y245020D01*
X896648Y245147D01*
X896746Y245272D01*
X896847Y245395D01*
X896951Y245515D01*
X897058Y245633D01*
X897168Y245748D01*
X897281Y245860D01*
X897396Y245969D01*
X897514Y246075D01*
X897635Y246179D01*
X897759Y246279D01*
X897884Y246376D01*
X898013Y246470D01*
X898143Y246560D01*
X898276Y246648D01*
X898411Y246732D01*
X898548Y246812D01*
X898687Y246890D01*
X898828Y246963D01*
X898970Y247033D01*
X899115Y247100D01*
X899261Y247163D01*
X899408Y247222D01*
X899557Y247278D01*
X899708Y247329D01*
X899859Y247377D01*
X900012Y247421D01*
X900166Y247462D01*
X900320Y247498D01*
X900476Y247531D01*
X900632Y247560D01*
X900789Y247584D01*
X900947Y247605D01*
X901105Y247622D01*
X901263Y247635D01*
X901422Y247644D01*
X901581Y247649D01*
X901740Y247650D01*
X901899Y247647D01*
X902057Y247640D01*
X902216Y247629D01*
X902374Y247614D01*
X902532Y247595D01*
X902689Y247572D01*
X902846Y247546D01*
X903002Y247515D01*
X903157Y247481D01*
X903311Y247442D01*
X903465Y247400D01*
X903617Y247354D01*
X903768Y247304D01*
X903917Y247250D01*
X904066Y247193D01*
X904212Y247132D01*
X904358Y247067D01*
X904501Y246999D01*
X904643Y246927D01*
X904783Y246851D01*
X904921Y246773D01*
X905057Y246690D01*
X905191Y246605D01*
X905322Y246516D01*
X905452Y246423D01*
X905579Y246328D01*
X905703Y246229D01*
X905826Y246127D01*
X905945Y246023D01*
X906062Y245915D01*
X906176Y245804D01*
X906287Y245691D01*
X906396Y245575D01*
X906501Y245456D01*
X906604Y245334D01*
X906703Y245210D01*
X906800Y245084D01*
X906893Y244955D01*
X906983Y244824D01*
X907069Y244690D01*
X907152Y244555D01*
X907232Y244417D01*
X907308Y244278D01*
X907381Y244137D01*
X907450Y243994D01*
X907516Y243849D01*
X907578Y243702D01*
X907636Y243555D01*
X907691Y243405D01*
X907742Y243255D01*
X907789Y243103D01*
X907832Y242950D01*
X907871Y242796D01*
X907907Y242641D01*
X907938Y242485D01*
X907966Y242329D01*
X907990Y242172D01*
X908010Y242014D01*
X908026Y241856D01*
X908038Y241697D01*
X908046Y241538D01*
X908050Y241379D01*
X908050Y241221D01*
X908046Y241062D01*
X908038Y240903D01*
X908026Y240744D01*
X908010Y240586D01*
X907990Y240428D01*
X907966Y240271D01*
X907938Y240115D01*
X907907Y239959D01*
X907871Y239804D01*
X907832Y239650D01*
X907789Y239497D01*
X907742Y239345D01*
X907691Y239195D01*
X907636Y239045D01*
X907578Y238898D01*
X907516Y238751D01*
X907450Y238606D01*
X907381Y238463D01*
X907308Y238322D01*
X907232Y238183D01*
X907152Y238045D01*
X907069Y237910D01*
X906983Y237776D01*
X906893Y237645D01*
X906800Y237516D01*
X906703Y237390D01*
X906604Y237266D01*
X906501Y237144D01*
X906396Y237025D01*
X906287Y236909D01*
X906176Y236796D01*
X906062Y236685D01*
X905945Y236577D01*
X905826Y236473D01*
X905703Y236371D01*
X905579Y236272D01*
X905452Y236177D01*
X905322Y236084D01*
X905191Y235995D01*
X905057Y235910D01*
X904921Y235827D01*
X904783Y235749D01*
X904643Y235673D01*
X904501Y235601D01*
X904358Y235533D01*
X904212Y235468D01*
X904066Y235407D01*
X903917Y235350D01*
X903768Y235296D01*
X903617Y235246D01*
X903465Y235200D01*
X903311Y235158D01*
X903157Y235119D01*
X903002Y235085D01*
X902846Y235054D01*
X902689Y235028D01*
X902532Y235005D01*
X902374Y234986D01*
X902216Y234971D01*
X902057Y234960D01*
X901899Y234953D01*
X901740Y234950D01*
X901581Y234951D01*
X901422Y234956D01*
X901263Y234965D01*
X901105Y234978D01*
X900947Y234995D01*
X900789Y235016D01*
X900632Y235040D01*
X900476Y235069D01*
X900320Y235102D01*
X900166Y235138D01*
X900012Y235179D01*
X899859Y235223D01*
X899708Y235271D01*
X899557Y235322D01*
X899408Y235378D01*
X899261Y235437D01*
X899115Y235500D01*
X898970Y235567D01*
X898828Y235637D01*
X898687Y235710D01*
X898548Y235788D01*
X898411Y235868D01*
X898276Y235952D01*
X898143Y236040D01*
X898013Y236130D01*
X897884Y236224D01*
X897759Y236321D01*
X897635Y236421D01*
X897514Y236525D01*
X897396Y236631D01*
X897281Y236740D01*
X897168Y236852D01*
X897058Y236967D01*
X896951Y237085D01*
X896847Y237205D01*
X896746Y237328D01*
X896648Y237453D01*
X896553Y237580D01*
X896462Y237710D01*
X896374Y237843D01*
X896289Y237977D01*
X896207Y238114D01*
X896129Y238252D01*
X896055Y238392D01*
X895984Y238535D01*
X895916Y238679D01*
X895853Y238824D01*
X895792Y238971D01*
X895736Y239120D01*
X895683Y239270D01*
X895634Y239421D01*
X895589Y239573D01*
X895548Y239727D01*
X895510Y239881D01*
X895477Y240037D01*
X895447Y240193D01*
X895421Y240350D01*
X895400Y240507D01*
X895382Y240665D01*
X895368Y240824D01*
X895358Y240982D01*
X895352Y241141D01*
X895350Y241300D01*
X895350Y190500D02*
X895352Y190659D01*
X895358Y190818D01*
X895368Y190976D01*
X895382Y191135D01*
X895400Y191293D01*
X895421Y191450D01*
X895447Y191607D01*
X895477Y191763D01*
X895510Y191919D01*
X895548Y192073D01*
X895589Y192227D01*
X895634Y192379D01*
X895683Y192530D01*
X895736Y192680D01*
X895792Y192829D01*
X895853Y192976D01*
X895916Y193121D01*
X895984Y193265D01*
X896055Y193408D01*
X896129Y193548D01*
X896207Y193686D01*
X896289Y193823D01*
X896374Y193957D01*
X896462Y194090D01*
X896553Y194220D01*
X896648Y194347D01*
X896746Y194472D01*
X896847Y194595D01*
X896951Y194715D01*
X897058Y194833D01*
X897168Y194948D01*
X897281Y195060D01*
X897396Y195169D01*
X897514Y195275D01*
X897635Y195379D01*
X897759Y195479D01*
X897884Y195576D01*
X898013Y195670D01*
X898143Y195760D01*
X898276Y195848D01*
X898411Y195932D01*
X898548Y196012D01*
X898687Y196090D01*
X898828Y196163D01*
X898970Y196233D01*
X899115Y196300D01*
X899261Y196363D01*
X899408Y196422D01*
X899557Y196478D01*
X899708Y196529D01*
X899859Y196577D01*
X900012Y196621D01*
X900166Y196662D01*
X900320Y196698D01*
X900476Y196731D01*
X900632Y196760D01*
X900789Y196784D01*
X900947Y196805D01*
X901105Y196822D01*
X901263Y196835D01*
X901422Y196844D01*
X901581Y196849D01*
X901740Y196850D01*
X901899Y196847D01*
X902057Y196840D01*
X902216Y196829D01*
X902374Y196814D01*
X902532Y196795D01*
X902689Y196772D01*
X902846Y196746D01*
X903002Y196715D01*
X903157Y196681D01*
X903311Y196642D01*
X903465Y196600D01*
X903617Y196554D01*
X903768Y196504D01*
X903917Y196450D01*
X904066Y196393D01*
X904212Y196332D01*
X904358Y196267D01*
X904501Y196199D01*
X904643Y196127D01*
X904783Y196051D01*
X904921Y195973D01*
X905057Y195890D01*
X905191Y195805D01*
X905322Y195716D01*
X905452Y195623D01*
X905579Y195528D01*
X905703Y195429D01*
X905826Y195327D01*
X905945Y195223D01*
X906062Y195115D01*
X906176Y195004D01*
X906287Y194891D01*
X906396Y194775D01*
X906501Y194656D01*
X906604Y194534D01*
X906703Y194410D01*
X906800Y194284D01*
X906893Y194155D01*
X906983Y194024D01*
X907069Y193890D01*
X907152Y193755D01*
X907232Y193617D01*
X907308Y193478D01*
X907381Y193337D01*
X907450Y193194D01*
X907516Y193049D01*
X907578Y192902D01*
X907636Y192755D01*
X907691Y192605D01*
X907742Y192455D01*
X907789Y192303D01*
X907832Y192150D01*
X907871Y191996D01*
X907907Y191841D01*
X907938Y191685D01*
X907966Y191529D01*
X907990Y191372D01*
X908010Y191214D01*
X908026Y191056D01*
X908038Y190897D01*
X908046Y190738D01*
X908050Y190579D01*
X908050Y190421D01*
X908046Y190262D01*
X908038Y190103D01*
X908026Y189944D01*
X908010Y189786D01*
X907990Y189628D01*
X907966Y189471D01*
X907938Y189315D01*
X907907Y189159D01*
X907871Y189004D01*
X907832Y188850D01*
X907789Y188697D01*
X907742Y188545D01*
X907691Y188395D01*
X907636Y188245D01*
X907578Y188098D01*
X907516Y187951D01*
X907450Y187806D01*
X907381Y187663D01*
X907308Y187522D01*
X907232Y187383D01*
X907152Y187245D01*
X907069Y187110D01*
X906983Y186976D01*
X906893Y186845D01*
X906800Y186716D01*
X906703Y186590D01*
X906604Y186466D01*
X906501Y186344D01*
X906396Y186225D01*
X906287Y186109D01*
X906176Y185996D01*
X906062Y185885D01*
X905945Y185777D01*
X905826Y185673D01*
X905703Y185571D01*
X905579Y185472D01*
X905452Y185377D01*
X905322Y185284D01*
X905191Y185195D01*
X905057Y185110D01*
X904921Y185027D01*
X904783Y184949D01*
X904643Y184873D01*
X904501Y184801D01*
X904358Y184733D01*
X904212Y184668D01*
X904066Y184607D01*
X903917Y184550D01*
X903768Y184496D01*
X903617Y184446D01*
X903465Y184400D01*
X903311Y184358D01*
X903157Y184319D01*
X903002Y184285D01*
X902846Y184254D01*
X902689Y184228D01*
X902532Y184205D01*
X902374Y184186D01*
X902216Y184171D01*
X902057Y184160D01*
X901899Y184153D01*
X901740Y184150D01*
X901581Y184151D01*
X901422Y184156D01*
X901263Y184165D01*
X901105Y184178D01*
X900947Y184195D01*
X900789Y184216D01*
X900632Y184240D01*
X900476Y184269D01*
X900320Y184302D01*
X900166Y184338D01*
X900012Y184379D01*
X899859Y184423D01*
X899708Y184471D01*
X899557Y184522D01*
X899408Y184578D01*
X899261Y184637D01*
X899115Y184700D01*
X898970Y184767D01*
X898828Y184837D01*
X898687Y184910D01*
X898548Y184988D01*
X898411Y185068D01*
X898276Y185152D01*
X898143Y185240D01*
X898013Y185330D01*
X897884Y185424D01*
X897759Y185521D01*
X897635Y185621D01*
X897514Y185725D01*
X897396Y185831D01*
X897281Y185940D01*
X897168Y186052D01*
X897058Y186167D01*
X896951Y186285D01*
X896847Y186405D01*
X896746Y186528D01*
X896648Y186653D01*
X896553Y186780D01*
X896462Y186910D01*
X896374Y187043D01*
X896289Y187177D01*
X896207Y187314D01*
X896129Y187452D01*
X896055Y187592D01*
X895984Y187735D01*
X895916Y187879D01*
X895853Y188024D01*
X895792Y188171D01*
X895736Y188320D01*
X895683Y188470D01*
X895634Y188621D01*
X895589Y188773D01*
X895548Y188927D01*
X895510Y189081D01*
X895477Y189237D01*
X895447Y189393D01*
X895421Y189550D01*
X895400Y189707D01*
X895382Y189865D01*
X895368Y190024D01*
X895358Y190182D01*
X895352Y190341D01*
X895350Y190500D01*
X895350Y139700D02*
X895352Y139859D01*
X895358Y140018D01*
X895368Y140176D01*
X895382Y140335D01*
X895400Y140493D01*
X895421Y140650D01*
X895447Y140807D01*
X895477Y140963D01*
X895510Y141119D01*
X895548Y141273D01*
X895589Y141427D01*
X895634Y141579D01*
X895683Y141730D01*
X895736Y141880D01*
X895792Y142029D01*
X895853Y142176D01*
X895916Y142321D01*
X895984Y142465D01*
X896055Y142608D01*
X896129Y142748D01*
X896207Y142886D01*
X896289Y143023D01*
X896374Y143157D01*
X896462Y143290D01*
X896553Y143420D01*
X896648Y143547D01*
X896746Y143672D01*
X896847Y143795D01*
X896951Y143915D01*
X897058Y144033D01*
X897168Y144148D01*
X897281Y144260D01*
X897396Y144369D01*
X897514Y144475D01*
X897635Y144579D01*
X897759Y144679D01*
X897884Y144776D01*
X898013Y144870D01*
X898143Y144960D01*
X898276Y145048D01*
X898411Y145132D01*
X898548Y145212D01*
X898687Y145290D01*
X898828Y145363D01*
X898970Y145433D01*
X899115Y145500D01*
X899261Y145563D01*
X899408Y145622D01*
X899557Y145678D01*
X899708Y145729D01*
X899859Y145777D01*
X900012Y145821D01*
X900166Y145862D01*
X900320Y145898D01*
X900476Y145931D01*
X900632Y145960D01*
X900789Y145984D01*
X900947Y146005D01*
X901105Y146022D01*
X901263Y146035D01*
X901422Y146044D01*
X901581Y146049D01*
X901740Y146050D01*
X901899Y146047D01*
X902057Y146040D01*
X902216Y146029D01*
X902374Y146014D01*
X902532Y145995D01*
X902689Y145972D01*
X902846Y145946D01*
X903002Y145915D01*
X903157Y145881D01*
X903311Y145842D01*
X903465Y145800D01*
X903617Y145754D01*
X903768Y145704D01*
X903917Y145650D01*
X904066Y145593D01*
X904212Y145532D01*
X904358Y145467D01*
X904501Y145399D01*
X904643Y145327D01*
X904783Y145251D01*
X904921Y145173D01*
X905057Y145090D01*
X905191Y145005D01*
X905322Y144916D01*
X905452Y144823D01*
X905579Y144728D01*
X905703Y144629D01*
X905826Y144527D01*
X905945Y144423D01*
X906062Y144315D01*
X906176Y144204D01*
X906287Y144091D01*
X906396Y143975D01*
X906501Y143856D01*
X906604Y143734D01*
X906703Y143610D01*
X906800Y143484D01*
X906893Y143355D01*
X906983Y143224D01*
X907069Y143090D01*
X907152Y142955D01*
X907232Y142817D01*
X907308Y142678D01*
X907381Y142537D01*
X907450Y142394D01*
X907516Y142249D01*
X907578Y142102D01*
X907636Y141955D01*
X907691Y141805D01*
X907742Y141655D01*
X907789Y141503D01*
X907832Y141350D01*
X907871Y141196D01*
X907907Y141041D01*
X907938Y140885D01*
X907966Y140729D01*
X907990Y140572D01*
X908010Y140414D01*
X908026Y140256D01*
X908038Y140097D01*
X908046Y139938D01*
X908050Y139779D01*
X908050Y139621D01*
X908046Y139462D01*
X908038Y139303D01*
X908026Y139144D01*
X908010Y138986D01*
X907990Y138828D01*
X907966Y138671D01*
X907938Y138515D01*
X907907Y138359D01*
X907871Y138204D01*
X907832Y138050D01*
X907789Y137897D01*
X907742Y137745D01*
X907691Y137595D01*
X907636Y137445D01*
X907578Y137298D01*
X907516Y137151D01*
X907450Y137006D01*
X907381Y136863D01*
X907308Y136722D01*
X907232Y136583D01*
X907152Y136445D01*
X907069Y136310D01*
X906983Y136176D01*
X906893Y136045D01*
X906800Y135916D01*
X906703Y135790D01*
X906604Y135666D01*
X906501Y135544D01*
X906396Y135425D01*
X906287Y135309D01*
X906176Y135196D01*
X906062Y135085D01*
X905945Y134977D01*
X905826Y134873D01*
X905703Y134771D01*
X905579Y134672D01*
X905452Y134577D01*
X905322Y134484D01*
X905191Y134395D01*
X905057Y134310D01*
X904921Y134227D01*
X904783Y134149D01*
X904643Y134073D01*
X904501Y134001D01*
X904358Y133933D01*
X904212Y133868D01*
X904066Y133807D01*
X903917Y133750D01*
X903768Y133696D01*
X903617Y133646D01*
X903465Y133600D01*
X903311Y133558D01*
X903157Y133519D01*
X903002Y133485D01*
X902846Y133454D01*
X902689Y133428D01*
X902532Y133405D01*
X902374Y133386D01*
X902216Y133371D01*
X902057Y133360D01*
X901899Y133353D01*
X901740Y133350D01*
X901581Y133351D01*
X901422Y133356D01*
X901263Y133365D01*
X901105Y133378D01*
X900947Y133395D01*
X900789Y133416D01*
X900632Y133440D01*
X900476Y133469D01*
X900320Y133502D01*
X900166Y133538D01*
X900012Y133579D01*
X899859Y133623D01*
X899708Y133671D01*
X899557Y133722D01*
X899408Y133778D01*
X899261Y133837D01*
X899115Y133900D01*
X898970Y133967D01*
X898828Y134037D01*
X898687Y134110D01*
X898548Y134188D01*
X898411Y134268D01*
X898276Y134352D01*
X898143Y134440D01*
X898013Y134530D01*
X897884Y134624D01*
X897759Y134721D01*
X897635Y134821D01*
X897514Y134925D01*
X897396Y135031D01*
X897281Y135140D01*
X897168Y135252D01*
X897058Y135367D01*
X896951Y135485D01*
X896847Y135605D01*
X896746Y135728D01*
X896648Y135853D01*
X896553Y135980D01*
X896462Y136110D01*
X896374Y136243D01*
X896289Y136377D01*
X896207Y136514D01*
X896129Y136652D01*
X896055Y136792D01*
X895984Y136935D01*
X895916Y137079D01*
X895853Y137224D01*
X895792Y137371D01*
X895736Y137520D01*
X895683Y137670D01*
X895634Y137821D01*
X895589Y137973D01*
X895548Y138127D01*
X895510Y138281D01*
X895477Y138437D01*
X895447Y138593D01*
X895421Y138750D01*
X895400Y138907D01*
X895382Y139065D01*
X895368Y139224D01*
X895358Y139382D01*
X895352Y139541D01*
X895350Y139700D01*
M02*
